<?xml version="1.0" encoding="UTF-8"?>
<!--Generator: Apple Native CoreSVG 232.5-->
<!DOCTYPE svg
PUBLIC "-//W3C//DTD SVG 1.1//EN"
       "http://www.w3.org/Graphics/SVG/1.1/DTD/svg11.dtd">
<svg version="1.1" xmlns="http://www.w3.org/2000/svg" xmlns:xlink="http://www.w3.org/1999/xlink" width="3300" height="2200">
 <!--glyph: "uni100249.medium", point size: 100.0, font version: "19.0d8e1", template writer version: "128"-->
 <style>.monochrome-0 {}

.multicolor-0:systemRedColor {}

.hierarchical-0:primary {}

.SFSymbolsPreviewFF3B30 {fill:#FF3B30;opacity:1.0}
</style>
 <g id="Notes">
  <rect height="2200" id="artboard" style="fill:white;opacity:1" width="3300" x="0" y="0"/>
  <line style="fill:none;stroke:black;opacity:1;stroke-width:0.5;" x1="263" x2="3036" y1="292" y2="292"/>
  <text style="stroke:none;fill:black;font-family:sans-serif;font-size:13;font-weight:bold;" transform="matrix(1 0 0 1 263 322)">Weight/Scale Variations</text>
  <text style="stroke:none;fill:black;font-family:sans-serif;font-size:13;text-anchor:middle;" transform="matrix(1 0 0 1 559.711 322)">Ultralight</text>
  <text style="stroke:none;fill:black;font-family:sans-serif;font-size:13;text-anchor:middle;" transform="matrix(1 0 0 1 856.422 322)">Thin</text>
  <text style="stroke:none;fill:black;font-family:sans-serif;font-size:13;text-anchor:middle;" transform="matrix(1 0 0 1 1153.13 322)">Light</text>
  <text style="stroke:none;fill:black;font-family:sans-serif;font-size:13;text-anchor:middle;" transform="matrix(1 0 0 1 1449.84 322)">Regular</text>
  <text style="stroke:none;fill:black;font-family:sans-serif;font-size:13;text-anchor:middle;" transform="matrix(1 0 0 1 1746.56 322)">Medium</text>
  <text style="stroke:none;fill:black;font-family:sans-serif;font-size:13;text-anchor:middle;" transform="matrix(1 0 0 1 2043.27 322)">Semibold</text>
  <text style="stroke:none;fill:black;font-family:sans-serif;font-size:13;text-anchor:middle;" transform="matrix(1 0 0 1 2339.98 322)">Bold</text>
  <text style="stroke:none;fill:black;font-family:sans-serif;font-size:13;text-anchor:middle;" transform="matrix(1 0 0 1 2636.69 322)">Heavy</text>
  <text style="stroke:none;fill:black;font-family:sans-serif;font-size:13;text-anchor:middle;" transform="matrix(1 0 0 1 2933.4 322)">Black</text>
  <line style="fill:none;stroke:black;opacity:1;stroke-width:0.5;" x1="263" x2="3036" y1="1903" y2="1903"/>
  <g transform="matrix(0.2 0 0 0.2 263 1933)">
   <path d="m46.2402 4.15039c21.5332 0 39.4531-17.8711 39.4531-39.4043s-17.9688-39.4043-39.502-39.4043c-21.4844 0-39.3555 17.8711-39.3555 39.4043s17.9199 39.4043 39.4043 39.4043Zm0-7.42188c-17.7246 0-31.8848-14.209-31.8848-31.9824s14.1113-31.9824 31.8359-31.9824c17.7734 0 32.0312 14.209 32.0312 31.9824s-14.209 31.9824-31.9824 31.9824Zm-17.9688-31.9824c0 2.14844 1.51367 3.61328 3.75977 3.61328h10.498v10.5957c0 2.19727 1.46484 3.71094 3.61328 3.71094 2.24609 0 3.71094-1.51367 3.71094-3.71094v-10.5957h10.5957c2.19727 0 3.71094-1.46484 3.71094-3.61328 0-2.19727-1.51367-3.71094-3.71094-3.71094h-10.5957v-10.5469c0-2.24609-1.46484-3.75977-3.71094-3.75977-2.14844 0-3.61328 1.51367-3.61328 3.75977v10.5469h-10.498c-2.24609 0-3.75977 1.51367-3.75977 3.71094Z"/>
  </g>
  <g transform="matrix(0.2 0 0 0.2 281.506 1933)">
   <path d="m58.5449 14.5508c27.2461 0 49.8047-22.6074 49.8047-49.8047 0-27.2461-22.6074-49.8047-49.8535-49.8047-27.1973 0-49.7559 22.5586-49.7559 49.8047 0 27.1973 22.6074 49.8047 49.8047 49.8047Zm0-8.30078c-23.0469 0-41.4551-18.457-41.4551-41.5039s18.3594-41.5039 41.4062-41.5039 41.5527 18.457 41.5527 41.5039-18.457 41.5039-41.5039 41.5039Zm-22.6562-41.5039c0 2.39258 1.66016 4.00391 4.15039 4.00391h14.3555v14.4043c0 2.44141 1.66016 4.15039 4.05273 4.15039 2.44141 0 4.15039-1.66016 4.15039-4.15039v-14.4043h14.4043c2.44141 0 4.15039-1.61133 4.15039-4.00391 0-2.44141-1.70898-4.15039-4.15039-4.15039h-14.4043v-14.3555c0-2.49023-1.70898-4.19922-4.15039-4.19922-2.39258 0-4.05273 1.70898-4.05273 4.19922v14.3555h-14.3555c-2.49023 0-4.15039 1.70898-4.15039 4.15039Z"/>
  </g>
  <g transform="matrix(0.2 0 0 0.2 304.924 1933)">
   <path d="m74.8535 28.3203c34.8145 0 63.623-28.8086 63.623-63.5742 0-34.8145-28.8574-63.623-63.6719-63.623-34.7656 0-63.5254 28.8086-63.5254 63.623 0 34.7656 28.8086 63.5742 63.5742 63.5742Zm0-9.08203c-30.1758 0-54.4434-24.3164-54.4434-54.4922 0-30.2246 24.2188-54.4922 54.3945-54.4922 30.2246 0 54.541 24.2676 54.541 54.4922 0 30.1758-24.2676 54.4922-54.4922 54.4922Zm-28.8574-54.4922c0 2.58789 1.85547 4.39453 4.58984 4.39453h19.7266v19.7754c0 2.68555 1.85547 4.58984 4.44336 4.58984 2.68555 0 4.54102-1.85547 4.54102-4.58984v-19.7754h19.7754c2.68555 0 4.58984-1.80664 4.58984-4.39453 0-2.73438-1.85547-4.58984-4.58984-4.58984h-19.7754v-19.7266c0-2.73438-1.85547-4.63867-4.54102-4.63867-2.58789 0-4.44336 1.9043-4.44336 4.63867v19.7266h-19.7266c-2.73438 0-4.58984 1.85547-4.58984 4.58984Z"/>
  </g>
  <text style="stroke:none;fill:black;font-family:sans-serif;font-size:13;font-weight:bold;" transform="matrix(1 0 0 1 263 1953)">Design Variations</text>
  <text style="stroke:none;fill:black;font-family:sans-serif;font-size:13;" transform="matrix(1 0 0 1 263 1971)">Symbols are supported in up to nine weights and three scales.</text>
  <text style="stroke:none;fill:black;font-family:sans-serif;font-size:13;" transform="matrix(1 0 0 1 263 1989)">For optimal layout with text and other symbols, vertically align</text>
  <text style="stroke:none;fill:black;font-family:sans-serif;font-size:13;" transform="matrix(1 0 0 1 263 2007)">symbols with the adjacent text.</text>
  <line style="fill:none;stroke:#00AEEF;stroke-width:0.5;opacity:1.0;" x1="776" x2="776" y1="1919" y2="1933"/>
  <g transform="matrix(0.2 0 0 0.2 776 1933)">
   <path d="m16.5527 0.78125c2.58789 0 3.85742-0.976562 4.78516-3.71094l6.29883-17.2363h28.8086l6.29883 17.2363c0.927734 2.73438 2.19727 3.71094 4.73633 3.71094 2.58789 0 4.24805-1.5625 4.24805-4.00391 0-0.830078-0.146484-1.61133-0.537109-2.63672l-22.9004-60.9863c-1.12305-2.97852-3.125-4.49219-6.25-4.49219-3.02734 0-5.07812 1.46484-6.15234 4.44336l-22.9004 61.084c-0.390625 1.02539-0.537109 1.80664-0.537109 2.63672 0 2.44141 1.5625 3.95508 4.10156 3.95508Zm13.4766-28.3691 11.8652-32.8613h0.244141l11.8652 32.8613Z"/>
  </g>
  <line style="fill:none;stroke:#00AEEF;stroke-width:0.5;opacity:1.0;" x1="792.836" x2="792.836" y1="1919" y2="1933"/>
  <text style="stroke:none;fill:black;font-family:sans-serif;font-size:13;font-weight:bold;" transform="matrix(1 0 0 1 776 1953)">Margins</text>
  <text style="stroke:none;fill:black;font-family:sans-serif;font-size:13;" transform="matrix(1 0 0 1 776 1971)">Leading and trailing margins on the left and right side of each symbol</text>
  <text style="stroke:none;fill:black;font-family:sans-serif;font-size:13;" transform="matrix(1 0 0 1 776 1989)">can be adjusted by modifying the x-location of the margin guidelines.</text>
  <text style="stroke:none;fill:black;font-family:sans-serif;font-size:13;" transform="matrix(1 0 0 1 776 2007)">Modifications are automatically applied proportionally to all</text>
  <text style="stroke:none;fill:black;font-family:sans-serif;font-size:13;" transform="matrix(1 0 0 1 776 2025)">scales and weights.</text>
  <g transform="matrix(0.2 0 0 0.2 1289 1933)">
   <path d="m14.209 9.32617 8.49609 8.54492c4.29688 4.3457 9.22852 4.05273 13.8672-1.07422l53.4668-58.9355-4.83398-4.88281-53.0762 58.3984c-1.75781 2.00195-3.41797 2.49023-5.76172 0.146484l-5.85938-5.81055c-2.34375-2.29492-1.80664-4.00391 0.195312-5.81055l57.373-54.0039-4.88281-4.83398-57.959 54.4434c-4.93164 4.58984-5.32227 9.47266-1.02539 13.8184Zm32.0801-90.9668c-2.09961 2.05078-2.24609 4.93164-1.07422 6.88477 1.17188 1.80664 3.4668 2.97852 6.68945 2.14844 7.32422-1.70898 14.9414-2.00195 22.0703 2.68555l-2.92969 7.27539c-1.70898 4.15039-0.830078 7.08008 1.85547 9.81445l11.4746 11.5723c2.44141 2.44141 4.49219 2.53906 7.32422 2.05078l5.32227-0.976562 3.32031 3.36914-0.195312 2.7832c-0.195312 2.49023 0.439453 4.39453 2.88086 6.78711l3.80859 3.71094c2.39258 2.39258 5.46875 2.53906 7.8125 0.195312l14.5508-14.5996c2.34375-2.34375 2.24609-5.32227-0.146484-7.71484l-3.85742-3.80859c-2.39258-2.39258-4.24805-3.17383-6.64062-2.97852l-2.88086 0.244141-3.22266-3.17383 1.2207-5.61523c0.634766-2.83203-0.146484-5.0293-3.07617-7.95898l-10.9863-10.9375c-16.6992-16.6016-38.8672-16.2109-53.3203-1.75781Zm7.4707 1.85547c12.1582-8.88672 28.6133-7.37305 39.7461 3.75977l12.1582 12.0605c1.17188 1.17188 1.36719 2.09961 1.02539 3.80859l-1.61133 7.42188 7.51953 7.42188 4.93164-0.292969c1.26953-0.0488281 1.66016 0.0488281 2.63672 1.02539l2.88086 2.88086-12.207 12.207-2.88086-2.88086c-0.976562-0.976562-1.12305-1.36719-1.07422-2.68555l0.341797-4.88281-7.4707-7.42188-7.61719 1.26953c-1.61133 0.341797-2.34375 0.195312-3.56445-0.976562l-10.0098-10.0098c-1.26953-1.17188-1.41602-2.00195-0.634766-3.85742l4.39453-10.4492c-7.8125-7.27539-17.9688-10.4004-28.125-7.42188-0.78125 0.195312-1.07422-0.439453-0.439453-0.976562Z"/>
  </g>
  <text style="stroke:none;fill:black;font-family:sans-serif;font-size:13;font-weight:bold;" transform="matrix(1 0 0 1 1289 1953)">Exporting</text>
  <text style="stroke:none;fill:black;font-family:sans-serif;font-size:13;" transform="matrix(1 0 0 1 1289 1971)">Symbols should be outlined when exporting to ensure the</text>
  <text style="stroke:none;fill:black;font-family:sans-serif;font-size:13;" transform="matrix(1 0 0 1 1289 1989)">design is preserved when submitting to Xcode.</text>
  <text id="template-version" style="stroke:none;fill:black;font-family:sans-serif;font-size:13;text-anchor:end;" transform="matrix(1 0 0 1 3036 1933)">Template v.4.0</text>
  <text style="stroke:none;fill:black;font-family:sans-serif;font-size:13;text-anchor:end;" transform="matrix(1 0 0 1 3036 1951)">Requires Xcode 14 or greater</text>
  <text id="descriptive-name" style="stroke:none;fill:black;font-family:sans-serif;font-size:13;text-anchor:end;" transform="matrix(1 0 0 1 3036 1969)">Generated from calendar</text>
  <text style="stroke:none;fill:black;font-family:sans-serif;font-size:13;text-anchor:end;" transform="matrix(1 0 0 1 3036 1987)">Typeset at 100.0 points</text>
  <text style="stroke:none;fill:black;font-family:sans-serif;font-size:13;" transform="matrix(1 0 0 1 263 726)">Small</text>
  <text style="stroke:none;fill:black;font-family:sans-serif;font-size:13;" transform="matrix(1 0 0 1 263 1156)">Medium</text>
  <text style="stroke:none;fill:black;font-family:sans-serif;font-size:13;" transform="matrix(1 0 0 1 263 1586)">Large</text>
 </g>
 <g id="Guides">
  <g id="H-reference" style="fill:#27AAE1;stroke:none;" transform="matrix(1 0 0 1 339 696)">
   <path d="M0.993654 0L3.63775 0L29.3281-67.1323L30.0303-67.1323L30.0303-70.459L28.1226-70.459ZM11.6885-24.4799L46.9815-24.4799L46.2315-26.7285L12.4385-26.7285ZM55.1196 0L57.7637 0L30.6382-70.459L29.4326-70.459L29.4326-67.1323Z"/>
  </g>
  <line id="Baseline-S" style="fill:none;stroke:#27AAE1;opacity:1;stroke-width:0.5;" x1="263" x2="3036" y1="696" y2="696"/>
  <line id="Capline-S" style="fill:none;stroke:#27AAE1;opacity:1;stroke-width:0.5;" x1="263" x2="3036" y1="625.541" y2="625.541"/>
  <g id="H-reference" style="fill:#27AAE1;stroke:none;" transform="matrix(1 0 0 1 339 1126)">
   <path d="M0.993654 0L3.63775 0L29.3281-67.1323L30.0303-67.1323L30.0303-70.459L28.1226-70.459ZM11.6885-24.4799L46.9815-24.4799L46.2315-26.7285L12.4385-26.7285ZM55.1196 0L57.7637 0L30.6382-70.459L29.4326-70.459L29.4326-67.1323Z"/>
  </g>
  <line id="Baseline-M" style="fill:none;stroke:#27AAE1;opacity:1;stroke-width:0.5;" x1="263" x2="3036" y1="1126" y2="1126"/>
  <line id="Capline-M" style="fill:none;stroke:#27AAE1;opacity:1;stroke-width:0.5;" x1="263" x2="3036" y1="1055.54" y2="1055.54"/>
  <g id="H-reference" style="fill:#27AAE1;stroke:none;" transform="matrix(1 0 0 1 339 1556)">
   <path d="M0.993654 0L3.63775 0L29.3281-67.1323L30.0303-67.1323L30.0303-70.459L28.1226-70.459ZM11.6885-24.4799L46.9815-24.4799L46.2315-26.7285L12.4385-26.7285ZM55.1196 0L57.7637 0L30.6382-70.459L29.4326-70.459L29.4326-67.1323Z"/>
  </g>
  <line id="Baseline-L" style="fill:none;stroke:#27AAE1;opacity:1;stroke-width:0.5;" x1="263" x2="3036" y1="1556" y2="1556"/>
  <line id="Capline-L" style="fill:none;stroke:#27AAE1;opacity:1;stroke-width:0.5;" x1="263" x2="3036" y1="1485.54" y2="1485.54"/>
  <line id="left-margin-Ultralight-S" style="fill:none;stroke:#00AEEF;stroke-width:0.5;opacity:1.0;" x1="512.504" x2="512.504" y1="600.785" y2="720.121"/>
  <line id="right-margin-Ultralight-S" style="fill:none;stroke:#00AEEF;stroke-width:0.5;opacity:1.0;" x1="606.918" x2="606.918" y1="600.785" y2="720.121"/>
  <line id="left-margin-Regular-S" style="fill:none;stroke:#00AEEF;stroke-width:0.5;opacity:1.0;" x1="1401.8" x2="1401.8" y1="600.785" y2="720.121"/>
  <line id="right-margin-Regular-S" style="fill:none;stroke:#00AEEF;stroke-width:0.5;opacity:1.0;" x1="1497.89" x2="1497.89" y1="600.785" y2="720.121"/>
  <line id="left-margin-Black-S" style="fill:none;stroke:#00AEEF;stroke-width:0.5;opacity:1.0;" x1="2881.11" x2="2881.11" y1="600.785" y2="720.121"/>
  <line id="right-margin-Black-S" style="fill:none;stroke:#00AEEF;stroke-width:0.5;opacity:1.0;" x1="2985.69" x2="2985.69" y1="600.785" y2="720.121"/>
 </g>
 <g id="Symbols">
  <g id="Black-S" transform="matrix(1 0 0 1 2881.11 696)">
   <path class="monochrome-0 multicolor-0:systemRedColor hierarchical-0:primary SFSymbolsPreviewFF3B30" d="M25 2.92969L79.5898 2.92969C89.1602 2.92969 94.8242-2.73438 94.8242-12.3047L94.8242-58.1055C94.8242-67.6758 89.1602-73.3398 79.5898-73.3398L25-73.3398C15.4297-73.3398 9.76562-67.6758 9.76562-58.1055L9.76562-12.3047C9.76562-2.73438 15.4297 2.92969 25 2.92969ZM27.2461-11.2305C25-11.2305 23.9258-12.1094 23.9258-14.5508L23.9258-46.0938C23.9258-48.5352 25-49.4141 27.2461-49.4141L77.3438-49.4141C79.5898-49.4141 80.6641-48.5352 80.6641-46.0938L80.6641-14.5508C80.6641-12.1094 79.5898-11.2305 77.3438-11.2305ZM45.4102-38.5742L47.6562-38.5742C49.1211-38.5742 49.6582-39.0625 49.6582-40.5273L49.6582-42.7734C49.6582-44.2383 49.1211-44.7266 47.6562-44.7266L45.4102-44.7266C43.9453-44.7266 43.4082-44.2383 43.4082-42.7734L43.4082-40.5273C43.4082-39.0625 43.9453-38.5742 45.4102-38.5742ZM56.9336-38.5742L59.1797-38.5742C60.6445-38.5742 61.1816-39.0625 61.1816-40.5273L61.1816-42.7734C61.1816-44.2383 60.6445-44.7266 59.1797-44.7266L56.9336-44.7266C55.4688-44.7266 54.9316-44.2383 54.9316-42.7734L54.9316-40.5273C54.9316-39.0625 55.4688-38.5742 56.9336-38.5742ZM68.457-38.5742L70.7031-38.5742C72.168-38.5742 72.7051-39.0625 72.7051-40.5273L72.7051-42.7734C72.7051-44.2383 72.168-44.7266 70.7031-44.7266L68.457-44.7266C66.9922-44.7266 66.4551-44.2383 66.4551-42.7734L66.4551-40.5273C66.4551-39.0625 66.9922-38.5742 68.457-38.5742ZM33.8867-27.2461L36.1328-27.2461C37.5977-27.2461 38.1348-27.7344 38.1348-29.1992L38.1348-31.4453C38.1348-32.9102 37.5977-33.3984 36.1328-33.3984L33.8867-33.3984C32.4219-33.3984 31.8848-32.9102 31.8848-31.4453L31.8848-29.1992C31.8848-27.7344 32.4219-27.2461 33.8867-27.2461ZM45.4102-27.2461L47.6562-27.2461C49.1211-27.2461 49.6582-27.7344 49.6582-29.1992L49.6582-31.4453C49.6582-32.9102 49.1211-33.3984 47.6562-33.3984L45.4102-33.3984C43.9453-33.3984 43.4082-32.9102 43.4082-31.4453L43.4082-29.1992C43.4082-27.7344 43.9453-27.2461 45.4102-27.2461ZM56.9336-27.2461L59.1797-27.2461C60.6445-27.2461 61.1816-27.7344 61.1816-29.1992L61.1816-31.4453C61.1816-32.9102 60.6445-33.3984 59.1797-33.3984L56.9336-33.3984C55.4688-33.3984 54.9316-32.9102 54.9316-31.4453L54.9316-29.1992C54.9316-27.7344 55.4688-27.2461 56.9336-27.2461ZM68.457-27.2461L70.7031-27.2461C72.168-27.2461 72.7051-27.7344 72.7051-29.1992L72.7051-31.4453C72.7051-32.9102 72.168-33.3984 70.7031-33.3984L68.457-33.3984C66.9922-33.3984 66.4551-32.9102 66.4551-31.4453L66.4551-29.1992C66.4551-27.7344 66.9922-27.2461 68.457-27.2461ZM33.8867-15.918L36.1328-15.918C37.5977-15.918 38.1348-16.4062 38.1348-17.8711L38.1348-20.1172C38.1348-21.582 37.5977-22.0703 36.1328-22.0703L33.8867-22.0703C32.4219-22.0703 31.8848-21.582 31.8848-20.1172L31.8848-17.8711C31.8848-16.4062 32.4219-15.918 33.8867-15.918ZM45.4102-15.918L47.6562-15.918C49.1211-15.918 49.6582-16.4062 49.6582-17.8711L49.6582-20.1172C49.6582-21.582 49.1211-22.0703 47.6562-22.0703L45.4102-22.0703C43.9453-22.0703 43.4082-21.582 43.4082-20.1172L43.4082-17.8711C43.4082-16.4062 43.9453-15.918 45.4102-15.918ZM56.9336-15.918L59.1797-15.918C60.6445-15.918 61.1816-16.4062 61.1816-17.8711L61.1816-20.1172C61.1816-21.582 60.6445-22.0703 59.1797-22.0703L56.9336-22.0703C55.4688-22.0703 54.9316-21.582 54.9316-20.1172L54.9316-17.8711C54.9316-16.4062 55.4688-15.918 56.9336-15.918Z"/>
  </g>
  <g id="Regular-S" transform="matrix(1 0 0 1 1401.8 696)">
   <path class="monochrome-0 multicolor-0:systemRedColor hierarchical-0:primary SFSymbolsPreviewFF3B30" d="M22.2168 0.390625L73.877 0.390625C82.2266 0.390625 86.3281-3.71094 86.3281-11.9141L86.3281-58.4961C86.3281-66.6992 82.2266-70.8008 73.877-70.8008L22.2168-70.8008C13.916-70.8008 9.76562-66.6992 9.76562-58.4961L9.76562-11.9141C9.76562-3.71094 13.916 0.390625 22.2168 0.390625ZM21.5332-6.68945C18.5059-6.68945 16.7969-8.30078 16.7969-11.4746L16.7969-48.1934C16.7969-51.3672 18.5059-52.9785 21.5332-52.9785L74.5117-52.9785C77.5391-52.9785 79.2969-51.3672 79.2969-48.1934L79.2969-11.4746C79.2969-8.30078 77.5391-6.68945 74.5117-6.68945ZM40.625-39.1602L42.8711-39.1602C44.3359-39.1602 44.8242-39.6484 44.8242-41.0645L44.8242-43.3105C44.8242-44.7266 44.3359-45.2148 42.8711-45.2148L40.625-45.2148C39.209-45.2148 38.7207-44.7266 38.7207-43.3105L38.7207-41.0645C38.7207-39.6484 39.209-39.1602 40.625-39.1602ZM53.2227-39.1602L55.4688-39.1602C56.8848-39.1602 57.373-39.6484 57.373-41.0645L57.373-43.3105C57.373-44.7266 56.8848-45.2148 55.4688-45.2148L53.2227-45.2148C51.7578-45.2148 51.2695-44.7266 51.2695-43.3105L51.2695-41.0645C51.2695-39.6484 51.7578-39.1602 53.2227-39.1602ZM65.7715-39.1602L68.0176-39.1602C69.4336-39.1602 69.9707-39.6484 69.9707-41.0645L69.9707-43.3105C69.9707-44.7266 69.4336-45.2148 68.0176-45.2148L65.7715-45.2148C64.3066-45.2148 63.8184-44.7266 63.8184-43.3105L63.8184-41.0645C63.8184-39.6484 64.3066-39.1602 65.7715-39.1602ZM28.0762-26.8066L30.3223-26.8066C31.7871-26.8066 32.2754-27.2949 32.2754-28.7109L32.2754-30.957C32.2754-32.373 31.7871-32.8613 30.3223-32.8613L28.0762-32.8613C26.6602-32.8613 26.123-32.373 26.123-30.957L26.123-28.7109C26.123-27.2949 26.6602-26.8066 28.0762-26.8066ZM40.625-26.8066L42.8711-26.8066C44.3359-26.8066 44.8242-27.2949 44.8242-28.7109L44.8242-30.957C44.8242-32.373 44.3359-32.8613 42.8711-32.8613L40.625-32.8613C39.209-32.8613 38.7207-32.373 38.7207-30.957L38.7207-28.7109C38.7207-27.2949 39.209-26.8066 40.625-26.8066ZM53.2227-26.8066L55.4688-26.8066C56.8848-26.8066 57.373-27.2949 57.373-28.7109L57.373-30.957C57.373-32.373 56.8848-32.8613 55.4688-32.8613L53.2227-32.8613C51.7578-32.8613 51.2695-32.373 51.2695-30.957L51.2695-28.7109C51.2695-27.2949 51.7578-26.8066 53.2227-26.8066ZM65.7715-26.8066L68.0176-26.8066C69.4336-26.8066 69.9707-27.2949 69.9707-28.7109L69.9707-30.957C69.9707-32.373 69.4336-32.8613 68.0176-32.8613L65.7715-32.8613C64.3066-32.8613 63.8184-32.373 63.8184-30.957L63.8184-28.7109C63.8184-27.2949 64.3066-26.8066 65.7715-26.8066ZM28.0762-14.4531L30.3223-14.4531C31.7871-14.4531 32.2754-14.9414 32.2754-16.3574L32.2754-18.6035C32.2754-20.0195 31.7871-20.5078 30.3223-20.5078L28.0762-20.5078C26.6602-20.5078 26.123-20.0195 26.123-18.6035L26.123-16.3574C26.123-14.9414 26.6602-14.4531 28.0762-14.4531ZM40.625-14.4531L42.8711-14.4531C44.3359-14.4531 44.8242-14.9414 44.8242-16.3574L44.8242-18.6035C44.8242-20.0195 44.3359-20.5078 42.8711-20.5078L40.625-20.5078C39.209-20.5078 38.7207-20.0195 38.7207-18.6035L38.7207-16.3574C38.7207-14.9414 39.209-14.4531 40.625-14.4531ZM53.2227-14.4531L55.4688-14.4531C56.8848-14.4531 57.373-14.9414 57.373-16.3574L57.373-18.6035C57.373-20.0195 56.8848-20.5078 55.4688-20.5078L53.2227-20.5078C51.7578-20.5078 51.2695-20.0195 51.2695-18.6035L51.2695-16.3574C51.2695-14.9414 51.7578-14.4531 53.2227-14.4531Z"/>
  </g>
  <g id="Ultralight-S" transform="matrix(1 0 0 1 512.504 696)">
   <path class="monochrome-0 multicolor-0:systemRedColor hierarchical-0:primary SFSymbolsPreviewFF3B30" d="M19.7647-1.562L74.6489-1.562C81.2275-1.562 84.648-5.11864 84.648-11.5508L84.648-58.7686C84.648-65.2007 81.2275-68.7573 74.6489-68.7573L19.7647-68.7573C13.2349-68.7573 9.76562-65.2915 9.76562-58.7686L9.76562-11.5508C9.76562-5.02782 13.2349-1.562 19.7647-1.562ZM19.8076-3.78323C14.646-3.78323 11.9834-6.43898 11.9834-11.6108L11.9834-44.6968C11.9834-49.8687 14.646-52.5698 19.8076-52.5698L74.6025-52.5698C79.5825-52.5698 82.4756-49.8687 82.4756-44.6968L82.4756-11.6108C82.4756-6.43898 79.5825-3.78323 74.6025-3.78323ZM39.3535-39.251L41.5996-39.251C42.565-39.251 42.69-39.376 42.69-40.2925L42.69-42.5386C42.69-43.4097 42.565-43.5347 41.5996-43.5347L39.3535-43.5347C38.437-43.5347 38.312-43.4097 38.312-42.5386L38.312-40.2925C38.312-39.376 38.437-39.251 39.3535-39.251ZM52.814-39.251L55.0601-39.251C56.022-39.251 56.1016-39.376 56.1016-40.2925L56.1016-42.5386C56.1016-43.4097 56.022-43.5347 55.0601-43.5347L52.814-43.5347C51.8486-43.5347 51.7236-43.4097 51.7236-42.5386L51.7236-40.2925C51.7236-39.376 51.8486-39.251 52.814-39.251ZM66.2256-39.251L68.4717-39.251C69.4336-39.251 69.562-39.376 69.562-40.2925L69.562-42.5386C69.562-43.4097 69.4336-43.5347 68.4717-43.5347L66.2256-43.5347C65.2602-43.5347 65.1807-43.4097 65.1807-42.5386L65.1807-40.2925C65.1807-39.376 65.2602-39.251 66.2256-39.251ZM25.9419-26.0347L28.188-26.0347C29.1533-26.0347 29.2783-26.1143 29.2783-27.0308L29.2783-29.2769C29.2783-30.1934 29.1533-30.3184 28.188-30.3184L25.9419-30.3184C24.98-30.3184 24.8516-30.1934 24.8516-29.2769L24.8516-27.0308C24.8516-26.1143 24.98-26.0347 25.9419-26.0347ZM39.3535-26.0347L41.5996-26.0347C42.565-26.0347 42.69-26.1143 42.69-27.0308L42.69-29.2769C42.69-30.1934 42.565-30.3184 41.5996-30.3184L39.3535-30.3184C38.437-30.3184 38.312-30.1934 38.312-29.2769L38.312-27.0308C38.312-26.1143 38.437-26.0347 39.3535-26.0347ZM52.814-26.0347L55.0601-26.0347C56.022-26.0347 56.1016-26.1143 56.1016-27.0308L56.1016-29.2769C56.1016-30.1934 56.022-30.3184 55.0601-30.3184L52.814-30.3184C51.8486-30.3184 51.7236-30.1934 51.7236-29.2769L51.7236-27.0308C51.7236-26.1143 51.8486-26.0347 52.814-26.0347ZM66.2256-26.0347L68.4717-26.0347C69.4336-26.0347 69.562-26.1143 69.562-27.0308L69.562-29.2769C69.562-30.1934 69.4336-30.3184 68.4717-30.3184L66.2256-30.3184C65.2602-30.3184 65.1807-30.1934 65.1807-29.2769L65.1807-27.0308C65.1807-26.1143 65.2602-26.0347 66.2256-26.0347ZM25.9419-12.773L28.188-12.773C29.1533-12.773 29.2783-12.898 29.2783-13.8145L29.2783-16.0606C29.2783-16.9771 29.1533-17.0567 28.188-17.0567L25.9419-17.0567C24.98-17.0567 24.8516-16.9771 24.8516-16.0606L24.8516-13.8145C24.8516-12.898 24.98-12.773 25.9419-12.773ZM39.3535-12.773L41.5996-12.773C42.565-12.773 42.69-12.898 42.69-13.8145L42.69-16.0606C42.69-16.9771 42.565-17.0567 41.5996-17.0567L39.3535-17.0567C38.437-17.0567 38.312-16.9771 38.312-16.0606L38.312-13.8145C38.312-12.898 38.437-12.773 39.3535-12.773ZM52.814-12.773L55.0601-12.773C56.022-12.773 56.1016-12.898 56.1016-13.8145L56.1016-16.0606C56.1016-16.9771 56.022-17.0567 55.0601-17.0567L52.814-17.0567C51.8486-17.0567 51.7236-16.9771 51.7236-16.0606L51.7236-13.8145C51.7236-12.898 51.8486-12.773 52.814-12.773Z"/>
  </g>
 </g>
</svg>
