<?xml version="1.0" encoding="UTF-8"?>
<!--Generator: Apple Native CoreSVG 232.5-->
<!DOCTYPE svg
PUBLIC "-//W3C//DTD SVG 1.1//EN"
       "http://www.w3.org/Graphics/SVG/1.1/DTD/svg11.dtd">
<svg version="1.1" xmlns="http://www.w3.org/2000/svg" xmlns:xlink="http://www.w3.org/1999/xlink" width="3300" height="2200">
 <!--glyph: "uni101212.medium", point size: 100.0, font version: "19.0d8e1", template writer version: "128"-->
 <style>.monochrome-0 {}
.monochrome-1 {opacity:0.0;-sfsymbols-clear-behind:true}
.monochrome-2 {}

.multicolor-0:systemRedColor {}
.multicolor-1:tintColor {opacity:0.0;-sfsymbols-clear-behind:true}
.multicolor-2:systemRedColor {}

.hierarchical-0:secondary {}
.hierarchical-1:primary {opacity:0.0;-sfsymbols-clear-behind:true}
.hierarchical-2:primary {}

.SFSymbolsPreviewFF3B30 {fill:#FF3B30;opacity:1.0}
.SFSymbolsPreviewFFFFFF {fill:#FFFFFF;opacity:1.0}
</style>
 <g id="Notes">
  <rect height="2200" id="artboard" style="fill:white;opacity:1" width="3300" x="0" y="0"/>
  <line style="fill:none;stroke:black;opacity:1;stroke-width:0.5;" x1="263" x2="3036" y1="292" y2="292"/>
  <text style="stroke:none;fill:black;font-family:sans-serif;font-size:13;font-weight:bold;" transform="matrix(1 0 0 1 263 322)">Weight/Scale Variations</text>
  <text style="stroke:none;fill:black;font-family:sans-serif;font-size:13;text-anchor:middle;" transform="matrix(1 0 0 1 559.711 322)">Ultralight</text>
  <text style="stroke:none;fill:black;font-family:sans-serif;font-size:13;text-anchor:middle;" transform="matrix(1 0 0 1 856.422 322)">Thin</text>
  <text style="stroke:none;fill:black;font-family:sans-serif;font-size:13;text-anchor:middle;" transform="matrix(1 0 0 1 1153.13 322)">Light</text>
  <text style="stroke:none;fill:black;font-family:sans-serif;font-size:13;text-anchor:middle;" transform="matrix(1 0 0 1 1449.84 322)">Regular</text>
  <text style="stroke:none;fill:black;font-family:sans-serif;font-size:13;text-anchor:middle;" transform="matrix(1 0 0 1 1746.56 322)">Medium</text>
  <text style="stroke:none;fill:black;font-family:sans-serif;font-size:13;text-anchor:middle;" transform="matrix(1 0 0 1 2043.27 322)">Semibold</text>
  <text style="stroke:none;fill:black;font-family:sans-serif;font-size:13;text-anchor:middle;" transform="matrix(1 0 0 1 2339.98 322)">Bold</text>
  <text style="stroke:none;fill:black;font-family:sans-serif;font-size:13;text-anchor:middle;" transform="matrix(1 0 0 1 2636.69 322)">Heavy</text>
  <text style="stroke:none;fill:black;font-family:sans-serif;font-size:13;text-anchor:middle;" transform="matrix(1 0 0 1 2933.4 322)">Black</text>
  <line style="fill:none;stroke:black;opacity:1;stroke-width:0.5;" x1="263" x2="3036" y1="1903" y2="1903"/>
  <g transform="matrix(0.2 0 0 0.2 263 1933)">
   <path d="m46.2402 4.15039c21.5332 0 39.4531-17.8711 39.4531-39.4043s-17.9688-39.4043-39.502-39.4043c-21.4844 0-39.3555 17.8711-39.3555 39.4043s17.9199 39.4043 39.4043 39.4043Zm0-7.42188c-17.7246 0-31.8848-14.209-31.8848-31.9824s14.1113-31.9824 31.8359-31.9824c17.7734 0 32.0312 14.209 32.0312 31.9824s-14.209 31.9824-31.9824 31.9824Zm-17.9688-31.9824c0 2.14844 1.51367 3.61328 3.75977 3.61328h10.498v10.5957c0 2.19727 1.46484 3.71094 3.61328 3.71094 2.24609 0 3.71094-1.51367 3.71094-3.71094v-10.5957h10.5957c2.19727 0 3.71094-1.46484 3.71094-3.61328 0-2.19727-1.51367-3.71094-3.71094-3.71094h-10.5957v-10.5469c0-2.24609-1.46484-3.75977-3.71094-3.75977-2.14844 0-3.61328 1.51367-3.61328 3.75977v10.5469h-10.498c-2.24609 0-3.75977 1.51367-3.75977 3.71094Z"/>
  </g>
  <g transform="matrix(0.2 0 0 0.2 281.506 1933)">
   <path d="m58.5449 14.5508c27.2461 0 49.8047-22.6074 49.8047-49.8047 0-27.2461-22.6074-49.8047-49.8535-49.8047-27.1973 0-49.7559 22.5586-49.7559 49.8047 0 27.1973 22.6074 49.8047 49.8047 49.8047Zm0-8.30078c-23.0469 0-41.4551-18.457-41.4551-41.5039s18.3594-41.5039 41.4062-41.5039 41.5527 18.457 41.5527 41.5039-18.457 41.5039-41.5039 41.5039Zm-22.6562-41.5039c0 2.39258 1.66016 4.00391 4.15039 4.00391h14.3555v14.4043c0 2.44141 1.66016 4.15039 4.05273 4.15039 2.44141 0 4.15039-1.66016 4.15039-4.15039v-14.4043h14.4043c2.44141 0 4.15039-1.61133 4.15039-4.00391 0-2.44141-1.70898-4.15039-4.15039-4.15039h-14.4043v-14.3555c0-2.49023-1.70898-4.19922-4.15039-4.19922-2.39258 0-4.05273 1.70898-4.05273 4.19922v14.3555h-14.3555c-2.49023 0-4.15039 1.70898-4.15039 4.15039Z"/>
  </g>
  <g transform="matrix(0.2 0 0 0.2 304.924 1933)">
   <path d="m74.8535 28.3203c34.8145 0 63.623-28.8086 63.623-63.5742 0-34.8145-28.8574-63.623-63.6719-63.623-34.7656 0-63.5254 28.8086-63.5254 63.623 0 34.7656 28.8086 63.5742 63.5742 63.5742Zm0-9.08203c-30.1758 0-54.4434-24.3164-54.4434-54.4922 0-30.2246 24.2188-54.4922 54.3945-54.4922 30.2246 0 54.541 24.2676 54.541 54.4922 0 30.1758-24.2676 54.4922-54.4922 54.4922Zm-28.8574-54.4922c0 2.58789 1.85547 4.39453 4.58984 4.39453h19.7266v19.7754c0 2.68555 1.85547 4.58984 4.44336 4.58984 2.68555 0 4.54102-1.85547 4.54102-4.58984v-19.7754h19.7754c2.68555 0 4.58984-1.80664 4.58984-4.39453 0-2.73438-1.85547-4.58984-4.58984-4.58984h-19.7754v-19.7266c0-2.73438-1.85547-4.63867-4.54102-4.63867-2.58789 0-4.44336 1.9043-4.44336 4.63867v19.7266h-19.7266c-2.73438 0-4.58984 1.85547-4.58984 4.58984Z"/>
  </g>
  <text style="stroke:none;fill:black;font-family:sans-serif;font-size:13;font-weight:bold;" transform="matrix(1 0 0 1 263 1953)">Design Variations</text>
  <text style="stroke:none;fill:black;font-family:sans-serif;font-size:13;" transform="matrix(1 0 0 1 263 1971)">Symbols are supported in up to nine weights and three scales.</text>
  <text style="stroke:none;fill:black;font-family:sans-serif;font-size:13;" transform="matrix(1 0 0 1 263 1989)">For optimal layout with text and other symbols, vertically align</text>
  <text style="stroke:none;fill:black;font-family:sans-serif;font-size:13;" transform="matrix(1 0 0 1 263 2007)">symbols with the adjacent text.</text>
  <line style="fill:none;stroke:#00AEEF;stroke-width:0.5;opacity:1.0;" x1="776" x2="776" y1="1919" y2="1933"/>
  <g transform="matrix(0.2 0 0 0.2 776 1933)">
   <path d="m16.5527 0.78125c2.58789 0 3.85742-0.976562 4.78516-3.71094l6.29883-17.2363h28.8086l6.29883 17.2363c0.927734 2.73438 2.19727 3.71094 4.73633 3.71094 2.58789 0 4.24805-1.5625 4.24805-4.00391 0-0.830078-0.146484-1.61133-0.537109-2.63672l-22.9004-60.9863c-1.12305-2.97852-3.125-4.49219-6.25-4.49219-3.02734 0-5.07812 1.46484-6.15234 4.44336l-22.9004 61.084c-0.390625 1.02539-0.537109 1.80664-0.537109 2.63672 0 2.44141 1.5625 3.95508 4.10156 3.95508Zm13.4766-28.3691 11.8652-32.8613h0.244141l11.8652 32.8613Z"/>
  </g>
  <line style="fill:none;stroke:#00AEEF;stroke-width:0.5;opacity:1.0;" x1="792.836" x2="792.836" y1="1919" y2="1933"/>
  <text style="stroke:none;fill:black;font-family:sans-serif;font-size:13;font-weight:bold;" transform="matrix(1 0 0 1 776 1953)">Margins</text>
  <text style="stroke:none;fill:black;font-family:sans-serif;font-size:13;" transform="matrix(1 0 0 1 776 1971)">Leading and trailing margins on the left and right side of each symbol</text>
  <text style="stroke:none;fill:black;font-family:sans-serif;font-size:13;" transform="matrix(1 0 0 1 776 1989)">can be adjusted by modifying the x-location of the margin guidelines.</text>
  <text style="stroke:none;fill:black;font-family:sans-serif;font-size:13;" transform="matrix(1 0 0 1 776 2007)">Modifications are automatically applied proportionally to all</text>
  <text style="stroke:none;fill:black;font-family:sans-serif;font-size:13;" transform="matrix(1 0 0 1 776 2025)">scales and weights.</text>
  <g transform="matrix(0.2 0 0 0.2 1289 1933)">
   <path d="m14.209 9.32617 8.49609 8.54492c4.29688 4.3457 9.22852 4.05273 13.8672-1.07422l53.4668-58.9355-4.83398-4.88281-53.0762 58.3984c-1.75781 2.00195-3.41797 2.49023-5.76172 0.146484l-5.85938-5.81055c-2.34375-2.29492-1.80664-4.00391 0.195312-5.81055l57.373-54.0039-4.88281-4.83398-57.959 54.4434c-4.93164 4.58984-5.32227 9.47266-1.02539 13.8184Zm32.0801-90.9668c-2.09961 2.05078-2.24609 4.93164-1.07422 6.88477 1.17188 1.80664 3.4668 2.97852 6.68945 2.14844 7.32422-1.70898 14.9414-2.00195 22.0703 2.68555l-2.92969 7.27539c-1.70898 4.15039-0.830078 7.08008 1.85547 9.81445l11.4746 11.5723c2.44141 2.44141 4.49219 2.53906 7.32422 2.05078l5.32227-0.976562 3.32031 3.36914-0.195312 2.7832c-0.195312 2.49023 0.439453 4.39453 2.88086 6.78711l3.80859 3.71094c2.39258 2.39258 5.46875 2.53906 7.8125 0.195312l14.5508-14.5996c2.34375-2.34375 2.24609-5.32227-0.146484-7.71484l-3.85742-3.80859c-2.39258-2.39258-4.24805-3.17383-6.64062-2.97852l-2.88086 0.244141-3.22266-3.17383 1.2207-5.61523c0.634766-2.83203-0.146484-5.0293-3.07617-7.95898l-10.9863-10.9375c-16.6992-16.6016-38.8672-16.2109-53.3203-1.75781Zm7.4707 1.85547c12.1582-8.88672 28.6133-7.37305 39.7461 3.75977l12.1582 12.0605c1.17188 1.17188 1.36719 2.09961 1.02539 3.80859l-1.61133 7.42188 7.51953 7.42188 4.93164-0.292969c1.26953-0.0488281 1.66016 0.0488281 2.63672 1.02539l2.88086 2.88086-12.207 12.207-2.88086-2.88086c-0.976562-0.976562-1.12305-1.36719-1.07422-2.68555l0.341797-4.88281-7.4707-7.42188-7.61719 1.26953c-1.61133 0.341797-2.34375 0.195312-3.56445-0.976562l-10.0098-10.0098c-1.26953-1.17188-1.41602-2.00195-0.634766-3.85742l4.39453-10.4492c-7.8125-7.27539-17.9688-10.4004-28.125-7.42188-0.78125 0.195312-1.07422-0.439453-0.439453-0.976562Z"/>
  </g>
  <text style="stroke:none;fill:black;font-family:sans-serif;font-size:13;font-weight:bold;" transform="matrix(1 0 0 1 1289 1953)">Exporting</text>
  <text style="stroke:none;fill:black;font-family:sans-serif;font-size:13;" transform="matrix(1 0 0 1 1289 1971)">Symbols should be outlined when exporting to ensure the</text>
  <text style="stroke:none;fill:black;font-family:sans-serif;font-size:13;" transform="matrix(1 0 0 1 1289 1989)">design is preserved when submitting to Xcode.</text>
  <text id="template-version" style="stroke:none;fill:black;font-family:sans-serif;font-size:13;text-anchor:end;" transform="matrix(1 0 0 1 3036 1933)">Template v.4.0</text>
  <text style="stroke:none;fill:black;font-family:sans-serif;font-size:13;text-anchor:end;" transform="matrix(1 0 0 1 3036 1951)">Requires Xcode 14 or greater</text>
  <text id="descriptive-name" style="stroke:none;fill:black;font-family:sans-serif;font-size:13;text-anchor:end;" transform="matrix(1 0 0 1 3036 1969)">Generated from trash.slash</text>
  <text style="stroke:none;fill:black;font-family:sans-serif;font-size:13;text-anchor:end;" transform="matrix(1 0 0 1 3036 1987)">Typeset at 100.0 points</text>
  <text style="stroke:none;fill:black;font-family:sans-serif;font-size:13;" transform="matrix(1 0 0 1 263 726)">Small</text>
  <text style="stroke:none;fill:black;font-family:sans-serif;font-size:13;" transform="matrix(1 0 0 1 263 1156)">Medium</text>
  <text style="stroke:none;fill:black;font-family:sans-serif;font-size:13;" transform="matrix(1 0 0 1 263 1586)">Large</text>
 </g>
 <g id="Guides">
  <g id="H-reference" style="fill:#27AAE1;stroke:none;" transform="matrix(1 0 0 1 339 696)">
   <path d="M0.993654 0L3.63775 0L29.3281-67.1323L30.0303-67.1323L30.0303-70.459L28.1226-70.459ZM11.6885-24.4799L46.9815-24.4799L46.2315-26.7285L12.4385-26.7285ZM55.1196 0L57.7637 0L30.6382-70.459L29.4326-70.459L29.4326-67.1323Z"/>
  </g>
  <line id="Baseline-S" style="fill:none;stroke:#27AAE1;opacity:1;stroke-width:0.5;" x1="263" x2="3036" y1="696" y2="696"/>
  <line id="Capline-S" style="fill:none;stroke:#27AAE1;opacity:1;stroke-width:0.5;" x1="263" x2="3036" y1="625.541" y2="625.541"/>
  <g id="H-reference" style="fill:#27AAE1;stroke:none;" transform="matrix(1 0 0 1 339 1126)">
   <path d="M0.993654 0L3.63775 0L29.3281-67.1323L30.0303-67.1323L30.0303-70.459L28.1226-70.459ZM11.6885-24.4799L46.9815-24.4799L46.2315-26.7285L12.4385-26.7285ZM55.1196 0L57.7637 0L30.6382-70.459L29.4326-70.459L29.4326-67.1323Z"/>
  </g>
  <line id="Baseline-M" style="fill:none;stroke:#27AAE1;opacity:1;stroke-width:0.5;" x1="263" x2="3036" y1="1126" y2="1126"/>
  <line id="Capline-M" style="fill:none;stroke:#27AAE1;opacity:1;stroke-width:0.5;" x1="263" x2="3036" y1="1055.54" y2="1055.54"/>
  <g id="H-reference" style="fill:#27AAE1;stroke:none;" transform="matrix(1 0 0 1 339 1556)">
   <path d="M0.993654 0L3.63775 0L29.3281-67.1323L30.0303-67.1323L30.0303-70.459L28.1226-70.459ZM11.6885-24.4799L46.9815-24.4799L46.2315-26.7285L12.4385-26.7285ZM55.1196 0L57.7637 0L30.6382-70.459L29.4326-70.459L29.4326-67.1323Z"/>
  </g>
  <line id="Baseline-L" style="fill:none;stroke:#27AAE1;opacity:1;stroke-width:0.5;" x1="263" x2="3036" y1="1556" y2="1556"/>
  <line id="Capline-L" style="fill:none;stroke:#27AAE1;opacity:1;stroke-width:0.5;" x1="263" x2="3036" y1="1485.54" y2="1485.54"/>
  <line id="left-margin-Ultralight-S" style="fill:none;stroke:#00AEEF;stroke-width:0.5;opacity:1.0;" x1="518.068" x2="518.068" y1="600.785" y2="720.121"/>
  <line id="right-margin-Ultralight-S" style="fill:none;stroke:#00AEEF;stroke-width:0.5;opacity:1.0;" x1="601.354" x2="601.354" y1="600.785" y2="720.121"/>
  <line id="left-margin-Regular-S" style="fill:none;stroke:#00AEEF;stroke-width:0.5;opacity:1.0;" x1="1406.68" x2="1406.68" y1="600.785" y2="720.121"/>
  <line id="right-margin-Regular-S" style="fill:none;stroke:#00AEEF;stroke-width:0.5;opacity:1.0;" x1="1493.01" x2="1493.01" y1="600.785" y2="720.121"/>
  <line id="left-margin-Black-S" style="fill:none;stroke:#00AEEF;stroke-width:0.5;opacity:1.0;" x1="2886.43" x2="2886.43" y1="600.785" y2="720.121"/>
  <line id="right-margin-Black-S" style="fill:none;stroke:#FF3B30;stroke-width:0.5;opacity:1.0;" x1="2980.37" x2="2980.37" y1="600.785" y2="720.121"/>
 </g>
 <g id="Symbols">
  <g id="Black-S" transform="matrix(1 0 0 1 2886.43 696)">
   <path class="monochrome-0 multicolor-0:systemRedColor hierarchical-0:secondary SFSymbolsPreviewFF3B30" d="M29.248 6.54297L64.7949 6.54297C72.5586 6.54297 77.002 2.83203 77.3438-4.98047L79.7363-58.3984L67.9688-58.3984L65.7227-8.59375C65.625-6.29883 64.7461-5.17578 62.9395-5.17578L31.1035-5.17578C29.2969-5.17578 28.418-6.29883 28.3203-8.59375L26.0742-58.3984L14.3066-58.3984L16.6992-4.98047C17.041 2.83203 21.4844 6.54297 29.248 6.54297ZM17.4805-57.6172L82.1777-57.6172C85.6445-57.6172 88.1348-59.9121 88.1348-63.3789C88.1348-66.748 85.6445-69.043 82.1777-69.043L17.4805-69.043C14.0137-69.043 11.5234-66.748 11.5234-63.3789C11.5234-59.9121 14.0137-57.6172 17.4805-57.6172ZM26.709-67.334L38.623-67.334L38.623-74.0234C38.623-75.0488 39.3066-75.5859 40.625-75.5859L53.418-75.5859C54.7363-75.5859 55.4199-75.0488 55.4199-74.0234L55.4199-67.334L67.334-67.334L67.334-74.2188C67.334-81.5918 62.8906-85.4492 54.3457-85.4492L39.6973-85.4492C31.1523-85.4492 26.709-81.5918 26.709-74.2188ZM36.0352-9.57031C38.4277-9.57031 39.8926-11.1328 39.8438-13.4277L38.7207-49.4629C38.6719-51.709 37.1094-53.2227 34.7656-53.2227C32.4707-53.2227 31.0547-51.709 31.1035-49.4141L32.2266-13.3301C32.2754-11.084 33.8379-9.57031 36.0352-9.57031ZM58.0078-9.57031C60.2051-9.57031 61.7676-11.084 61.8164-13.3301L62.9395-49.4141C62.9883-51.709 61.5723-53.2227 59.2773-53.2227C56.9336-53.2227 55.3711-51.709 55.3223-49.4629L54.1992-13.4277C54.1504-11.1328 55.6152-9.57031 58.0078-9.57031ZM47.0215-9.57031C49.2676-9.57031 50.7812-11.0352 50.7812-13.2812L50.7812-49.5117C50.7812-51.7578 49.2676-53.2227 47.0215-53.2227C44.7754-53.2227 43.2617-51.7578 43.2617-49.5117L43.2617-13.2812C43.2617-11.0352 44.7754-9.57031 47.0215-9.57031Z"/>
   <path class="monochrome-1 multicolor-1:tintColor hierarchical-1:primary SFSymbolsPreviewFFFFFF" d="M77.9785 6.83594C81.6406 10.498 87.6953 10.498 91.2598 6.73828C94.8242 3.07617 94.873-2.73438 91.2109-6.39648L16.0156-81.5918C12.3535-85.2539 6.39648-85.2539 2.73438-81.5918C-0.878906-77.9785-0.878906-71.9727 2.73438-68.3594Z"/>
   <path class="monochrome-2 multicolor-2:systemRedColor hierarchical-2:primary SFSymbolsPreviewFF3B30" d="M82.1289 2.68555C83.4961 4.05273 85.7422 4.05273 87.0605 2.68555C88.3789 1.31836 88.4277-0.878906 87.0605-2.24609L11.8652-77.4414C10.498-78.8086 8.25195-78.8086 6.88477-77.4414C5.56641-76.123 5.56641-73.8281 6.88477-72.5098Z"/>
  </g>
  <g id="Regular-S" transform="matrix(1 0 0 1 1406.68 696)">
   <path class="monochrome-0 multicolor-0:systemRedColor hierarchical-0:secondary SFSymbolsPreviewFF3B30" d="M25.5371 4.05273L60.8887 4.05273C66.6992 4.05273 70.4102 0.439453 70.7031-5.41992L73.291-60.8887L66.2598-60.8887L63.8184-6.15234C63.7207-3.95508 62.2559-2.49023 60.1562-2.49023L26.2207-2.49023C24.1699-2.49023 22.6562-4.00391 22.5586-6.15234L19.9219-60.8887L13.0859-60.8887L15.6738-5.37109C15.9668 0.488281 19.6777 4.05273 25.5371 4.05273ZM13.0859-60.1562L77.2461-60.1562C79.0527-60.1562 80.5176-61.6211 80.5176-63.4277C80.5176-65.2344 79.0527-66.6992 77.2461-66.6992L13.0859-66.6992C11.3281-66.6992 9.86328-65.2344 9.86328-63.4277C9.86328-61.6211 11.3281-60.1562 13.0859-60.1562ZM26.123-63.623L33.1055-63.623L33.1055-71.8262C33.1055-73.8281 34.4727-75.1465 36.5234-75.1465L49.7559-75.1465C51.8066-75.1465 53.2227-73.8281 53.2227-71.8262L53.2227-63.623L60.1562-63.623L60.1562-72.3145C60.1562-78.0762 56.3965-81.6406 50.2441-81.6406L36.0352-81.6406C29.8828-81.6406 26.123-78.0762 26.123-72.3145ZM31.8848-8.54492C33.5449-8.54492 34.6191-9.57031 34.5703-11.084L33.4961-51.123C33.4473-52.6855 32.373-53.6621 30.8105-53.6621C29.1504-53.6621 28.0762-52.6367 28.125-51.123L29.1992-11.084C29.248-9.52148 30.3223-8.54492 31.8848-8.54492ZM54.4922-8.54492C56.0547-8.54492 57.1289-9.52148 57.1777-11.084L58.252-51.123C58.3008-52.6367 57.2266-53.6621 55.5664-53.6621C54.0527-53.6621 52.9297-52.6367 52.8809-51.123L51.8066-11.084C51.7578-9.57031 52.832-8.54492 54.4922-8.54492ZM43.2129-8.54492C44.8242-8.54492 45.9473-9.57031 45.9473-11.084L45.9473-51.123C45.9473-52.6367 44.8242-53.6621 43.2129-53.6621C41.5527-53.6621 40.4297-52.6367 40.4297-51.123L40.4297-11.084C40.4297-9.57031 41.5527-8.54492 43.2129-8.54492Z"/>
   <path class="monochrome-1 multicolor-1:tintColor hierarchical-1:primary SFSymbolsPreviewFFFFFF" d="M71.3867 1.02539C74.6094 4.24805 79.834 4.19922 82.959 0.927734C86.0352-2.24609 86.0352-7.37305 82.9102-10.498L14.9902-78.4668C11.8164-81.6406 6.5918-81.6406 3.41797-78.4668C0.292969-75.3418 0.292969-70.0684 3.41797-66.9434Z"/>
   <path class="monochrome-2 multicolor-2:systemRedColor hierarchical-2:primary SFSymbolsPreviewFF3B30" d="M74.7559-2.39258C76.0742-1.07422 78.2227-1.07422 79.4922-2.39258C80.8105-3.71094 80.8105-5.81055 79.4922-7.12891L11.6211-75.0488C10.3027-76.3672 8.1543-76.3672 6.83594-75.0488C5.56641-73.7793 5.56641-71.582 6.83594-70.3125Z"/>
  </g>
  <g id="Ultralight-S" transform="matrix(1 0 0 1 518.068 696)">
   <path class="monochrome-0 multicolor-0:systemRedColor hierarchical-0:secondary SFSymbolsPreviewFF3B30" d="M24.6743 3.50782L58.6636 3.50782C62.6123 3.50782 65.96 0.348634 66.1621-3.51271L69.3404-63.7041L67.0317-63.7041L63.8638-3.70021C63.7207-0.958031 61.3931 1.32419 58.5669 1.32419L24.6768 1.32419C21.8994 1.32419 19.5684-0.96145 19.4253-3.70021L16.2437-63.6587L14.0395-63.6587L17.2178-3.50929C17.4199 0.352052 20.7222 3.50782 24.6743 3.50782ZM12.7681-63.1533L76.3379-63.1533C76.9639-63.1533 77.4297-63.6645 77.4297-64.2451C77.4297-64.9165 76.9185-65.3369 76.3379-65.3369L12.7681-65.3369C12.1909-65.3369 11.6343-64.8711 11.6343-64.2451C11.6343-63.6191 12.1909-63.1533 12.7681-63.1533ZM26.0776-64.2588L28.292-64.2588L28.292-72.2349C28.292-75.3721 30.295-77.1899 33.708-77.1899L49.5742-77.1899C53.0327-77.1899 55.039-75.3721 55.039-72.2349L55.039-64.2588L57.25-64.2588L57.25-72.269C57.25-76.7139 54.353-79.3701 49.5176-79.3701L33.7647-79.3701C28.9746-79.3701 26.0776-76.7139 26.0776-72.269ZM30.0684-7.54591C30.7295-7.54591 31.0772-7.98097 31.0738-8.54104L29.6363-53.3935C29.6328-53.957 29.1944-54.2978 28.6309-54.2978C28.0606-54.2978 27.6221-53.9536 27.6255-53.3027L29.063-8.49563C29.0664-7.93214 29.4595-7.54591 30.0684-7.54591ZM53.2661-7.45509C53.875-7.45509 54.2681-7.88673 54.2715-8.45022L55.709-53.2573C55.7124-53.9082 55.2739-54.2524 54.7036-54.2524C54.1436-54.2524 53.7017-53.9082 53.6982-53.3481L52.2153-8.49563C52.2119-7.93556 52.605-7.45509 53.2661-7.45509ZM41.669-7.54591C42.2813-7.54591 42.7232-7.93556 42.7232-8.54104L42.7232-53.3027C42.7232-53.9082 42.2813-54.2978 41.669-54.2978C41.0986-54.2978 40.6567-53.9082 40.6567-53.3027L40.6567-8.54104C40.6567-7.93556 41.0986-7.54591 41.669-7.54591Z"/>
   <path class="monochrome-1 multicolor-1:tintColor hierarchical-1:primary SFSymbolsPreviewFFFFFF" d="M73.3847 0.0717849C75.0181 1.7051 77.6089 1.70168 79.19 0.0649482C80.8584-1.61036 80.8584-4.10354 79.1866-5.77543L9.90434-75.0611C8.22903-76.7364 5.6836-76.7364 4.05371-75.0611C2.42723-73.48 2.42723-70.8857 4.05371-69.2593Z"/>
   <path class="monochrome-2 multicolor-2:systemRedColor hierarchical-2:primary SFSymbolsPreviewFF3B30" d="M75.5278-2.07471C75.938-1.61914 76.6333-1.61914 77.0855-2.07471C77.5865-2.53028 77.541-3.22219 77.0855-3.63235L7.76126-72.96C7.39651-73.3701 6.65577-73.461 6.2002-72.96C5.74805-72.5078 5.74805-71.8091 6.2002-71.4023Z"/>
  </g>
 </g>
</svg>
